HIERARCHY
ROOT Hips
{
	OFFSET -0.179506 -22.333345 2.821913
	CHANNELS 6 Xposition Yposition Zposition Zrotation Yrotation Xrotation 
	JOINT LeftUpLeg
	{
		OFFSET 6.951974 -9.140623 -0.681533
		CHANNELS 3 Zrotation Yrotation Xrotation
		JOINT LeftLeg
		{
			OFFSET 3.427654 -37.519855 -0.449580
			CHANNELS 3 Zrotation Yrotation Xrotation
			JOINT LeftFoot
			{
				OFFSET -1.359570 -39.796059 -4.369333
				CHANNELS 3 Zrotation Yrotation Xrotation
				JOINT LeftToe
				{
					OFFSET 2.635814 -5.579078 11.928840
					CHANNELS 3 Zrotation Yrotation Xrotation
					End Site
					{
						OFFSET 0.000000 0.000000 0.000000
					}
				}
			}
		}
	}
	JOINT RightUpLeg
	{
		OFFSET -6.767048 -9.052170 -0.431982
		CHANNELS 3 Zrotation Yrotation Xrotation
		JOINT RightLeg
		{
			OFFSET -3.829005 -38.256897 -0.885003
			CHANNELS 3 Zrotation Yrotation Xrotation
			JOINT RightFoot
			{
				OFFSET 1.577377 -39.841461 -4.231180
				CHANNELS 3 Zrotation Yrotation Xrotation
				JOINT RightToe
				{
					OFFSET -2.537174 -4.814398 12.334795
					CHANNELS 3 Zrotation Yrotation Xrotation
					End Site
					{
						OFFSET 0.000000 0.000000 0.000000
					}
				}
			}
		}
	}
	JOINT Spine
	{
		OFFSET -0.253288 10.896323 -2.669631
		CHANNELS 3 Zrotation Yrotation Xrotation
		JOINT Spine1
		{
			OFFSET 0.548704 13.518043 0.109247
			CHANNELS 3 Zrotation Yrotation Xrotation
			JOINT Spine2
			{
				OFFSET 0.145701 5.292222 2.542457
				CHANNELS 3 Zrotation Yrotation Xrotation
				JOINT Neck
				{
					OFFSET -0.277840 21.387037 -4.285703
					CHANNELS 3 Zrotation Yrotation Xrotation
					JOINT Head
					{
						OFFSET 0.515184 6.496960 5.134897
						CHANNELS 3 Zrotation Yrotation Xrotation
						End Site
						{
							OFFSET 0.000000 0.000000 0.000000
						}
					}
				}
				JOINT LeftShoulder
				{
					OFFSET 7.884473 12.174932 -3.408961
					CHANNELS 3 Zrotation Yrotation Xrotation
					JOINT LeftArm
					{
						OFFSET 9.097692 3.046888 -0.886815
						CHANNELS 3 Zrotation Yrotation Xrotation
						JOINT LeftForeArm
						{
							OFFSET 25.961220 -1.277207 -2.745643
							CHANNELS 3 Zrotation Yrotation Xrotation
							JOINT LeftHand
							{
								OFFSET 24.923361 0.898606 -0.117091
								CHANNELS 3 Zrotation Yrotation Xrotation
								End Site
								{
									OFFSET 0.000000 0.000000 0.000000
								}
							}
						}
					}
				}
				JOINT RightShoulder
				{
					OFFSET -8.175920 11.883285 -3.861528
					CHANNELS 3 Zrotation Yrotation Xrotation
					JOINT RightArm
					{
						OFFSET -9.601238 3.255117 -0.914307
						CHANNELS 3 Zrotation Yrotation Xrotation
						JOINT RightForeArm
						{
							OFFSET -25.374195 -1.332924 -2.140099
							CHANNELS 3 Zrotation Yrotation Xrotation
							JOINT RightHand
							{
								OFFSET -25.529810 0.777228 -0.555919
								CHANNELS 3 Zrotation Yrotation Xrotation
								End Site
								{
									OFFSET 0.000000 0.000000 0.000000
								}
							}
						}
					}
				}
			}
		}
	}
}
MOTION
Frames: 13
Frame Time: 0.033333
-33.065704 10.263326 42.887981 179.201244 0.044611 92.521018 12.530687 39.360660 -93.878428 -9.236653 25.904208 137.632105 16.727453 -17.133244 -42.348692 nan nan nan -6.851516 -36.522656 -91.667636 -0.247459 -19.858565 141.032750 -11.302213 19.563732 -42.010468 nan nan nan 3.953272 1.292890 83.223116 -0.088149 -2.138387 -20.367408 5.345728 -0.945412 -2.904191 -9.900505 0.903811 -23.575387 12.663093 -4.738942 -17.963500 2.649691 -46.386020 -14.789292 -7.942060 -26.331262 -22.083105 0.771255 -17.636762 -11.714261 -15.844855 -16.938125 -48.251103 -4.623173 43.648941 -9.092811 2.620469 33.203047 -35.875359 -1.145371 17.646297 -0.592628 33.644640 7.102609 -14.757279 
-33.057400 10.313869 42.765835 179.336895 0.007004 92.367218 12.502311 39.158164 -93.897244 -9.189748 25.823895 137.858122 16.884610 -16.976543 -42.543827 nan nan nan -7.017139 -36.721368 -91.584439 -0.248003 -19.818684 141.308270 -11.283159 19.560183 -42.111575 nan nan nan 3.981422 1.212038 83.000250 -0.029487 -2.172564 -20.345020 5.344715 -1.004194 -2.975052 -9.786716 0.700876 -23.540265 12.631834 -4.639363 -17.945155 2.364412 -46.318273 -14.603999 -8.320676 -26.392606 -21.915551 0.853329 -17.540530 -11.530978 -16.273952 -17.071529 -48.419178 -4.362508 43.709955 -8.866823 2.590043 33.188255 -35.906342 -0.976580 17.477164 -0.597480 34.520303 7.143729 -14.993463 
-33.061455 10.362737 42.669685 179.388079 -0.001330 92.216576 12.519396 39.081065 -93.860013 -9.134954 25.736953 138.078051 17.068437 -16.888156 -42.654552 nan nan nan -7.141863 -36.849443 -91.493194 -0.222217 -19.813596 141.503321 -11.253095 19.645186 -41.977035 nan nan nan 4.013947 1.170221 82.804301 0.020212 -2.214885 -20.304811 5.339471 -1.011813 -3.068380 -9.786067 0.576622 -23.575052 12.629325 -4.538233 -17.844343 2.080587 -46.273390 -14.379627 -8.656503 -26.389966 -21.812913 0.931203 -17.515842 -11.368092 -16.609666 -17.203107 -48.434727 -4.272766 43.731368 -8.671579 2.715392 33.116899 -35.920231 -0.863157 17.533350 -0.598447 35.404094 7.191283 -15.569054 
-33.051468 10.410206 42.602589 179.276233 0.036047 92.105611 12.584956 39.173612 -93.735735 -9.098043 25.594703 138.245781 17.227208 -16.867840 -42.802756 nan nan nan -7.159047 -36.747835 -91.458012 -0.254389 -19.764506 141.610540 -11.335249 19.695150 -41.723373 nan nan nan 3.939204 1.250950 82.592240 0.002709 -2.195227 -20.296698 5.356964 -0.926342 -3.132480 -9.840861 0.569123 -23.409763 12.709336 -4.512014 -17.975934 1.838137 -46.214788 -14.231241 -9.013091 -26.390781 -21.763874 0.969438 -17.458430 -11.138540 -16.849819 -17.283580 -48.187159 -4.209660 43.719961 -8.470566 2.953405 33.099030 -36.045398 -0.797600 17.550153 -0.521116 35.347947 7.189034 -15.937832 
-33.030037 10.450821 42.562458 179.160063 0.057677 91.991862 12.639538 39.234005 -93.568589 -9.100610 25.478715 138.348127 17.288757 -16.760901 -42.986205 nan nan nan -7.185060 -36.605912 -91.377360 -0.295080 -19.687601 141.697247 -11.423350 19.718044 -41.707996 nan nan nan 3.818471 1.339997 82.405707 -0.027036 -2.167037 -20.315555 5.367495 -0.848796 -3.130207 -9.823223 0.605821 -23.241124 12.767370 -4.609097 -18.187005 1.610738 -46.163794 -14.062791 -9.292583 -26.294112 -21.622989 1.024933 -17.558093 -11.047613 -17.190348 -17.414002 -48.065969 -4.086024 43.735959 -8.286236 3.104177 33.118455 -36.131388 -0.771282 17.546519 -0.518362 34.734549 6.955185 -15.927495 
-33.018066 10.476170 42.554333 179.121083 0.043111 91.897285 12.697411 39.219117 -93.393655 -9.137232 25.466967 138.365980 17.340392 -16.630167 -43.121994 nan nan nan -7.219171 -36.533187 -91.286711 -0.263326 -19.646978 141.732816 -11.427196 19.692463 -41.775932 nan nan nan 3.774484 1.359802 82.229956 -0.046680 -2.152160 -20.300258 5.331589 -0.845257 -3.154084 -9.758290 0.570089 -23.349079 12.745635 -4.732030 -18.131916 1.290084 -46.135969 -13.825518 -9.431853 -26.224944 -21.468798 1.002117 -17.747347 -10.957349 -17.228909 -17.453926 -48.068043 -3.863379 43.715768 -8.116799 3.214187 33.110661 -35.990960 -0.893180 17.703855 -0.361385 34.411014 6.805840 -15.602056 
-33.029556 10.483976 42.587093 179.150077 0.048199 91.871483 12.782675 39.152672 -93.242407 -9.157549 25.510412 138.290796 17.389536 -16.640223 -43.137284 nan nan nan -7.247141 -36.577648 -91.172049 -0.261240 -19.644381 141.692072 -11.438279 19.665817 -41.777898 nan nan nan 3.822635 1.307723 81.964726 -0.032031 -2.187335 -20.143540 5.261039 -0.812255 -3.295459 -9.723477 0.526540 -23.494150 12.723453 -4.798149 -18.004283 1.058598 -46.193478 -13.623358 -9.606966 -26.140026 -21.449214 1.057069 -17.801355 -10.850685 -17.361535 -17.470299 -47.701289 -3.691068 43.729747 -7.975612 3.418497 33.069277 -35.900661 -1.263966 17.790799 -0.019964 34.755930 6.750579 -14.787237 
-33.055882 10.480422 42.671989 179.260133 0.047040 91.889955 12.890588 39.011025 -93.034976 -9.133774 25.562771 138.145139 17.423808 -16.693604 -43.069119 nan nan nan -7.290092 -36.752485 -90.969971 -0.234040 -19.624757 141.556763 -11.549950 19.778223 -41.767056 nan nan nan 3.929889 1.109390 81.679657 -0.034133 -2.304402 -19.969063 5.142948 -0.748989 -3.427691 -9.695440 0.487546 -23.611680 12.753614 -4.777047 -18.007983 1.132672 -46.190752 -13.555571 -9.991605 -26.019266 -21.531168 1.274272 -17.879449 -10.747994 -17.720538 -17.458140 -47.293821 -3.774567 43.709072 -7.967288 3.802610 33.152981 -35.919810 -1.615562 17.728311 0.333420 35.196230 6.648762 -13.794414 
-33.064316 10.466515 42.794991 179.304402 -0.037135 91.955390 12.900100 38.913085 -92.828331 -9.125290 25.622844 137.929805 17.501542 -16.650802 -43.044809 nan nan nan -7.303063 -36.825809 -90.857144 -0.150562 -19.602664 141.341266 -11.654861 19.891593 -41.785191 nan nan nan 3.892724 0.974894 81.480478 -0.069411 -2.367354 -20.033418 5.069606 -0.790708 -3.363901 -9.615524 0.534925 -23.923808 12.648375 -4.784339 -17.972665 1.171036 -45.899545 -13.570354 -10.401043 -26.089464 -21.482975 1.472297 -18.028531 -10.426612 -17.791891 -17.510597 -47.501753 -3.791340 43.562621 -7.921683 3.988999 33.480660 -35.848721 -1.579933 17.715104 0.547874 35.042857 6.726250 -14.188973 
-33.046124 10.435011 42.946957 179.227848 -0.135401 92.109857 12.872767 38.954177 -92.687267 -9.188270 25.709764 137.614431 17.450453 -16.658024 -43.042604 nan nan nan -7.306195 -36.717763 -90.847915 -0.123711 -19.637013 141.063977 -11.588819 19.894981 -41.755650 nan nan nan 3.732946 1.035038 81.231220 -0.103067 -2.338015 -20.098845 5.043757 -0.834919 -3.313752 -9.501135 0.593167 -24.215325 12.539601 -4.882035 -17.963575 1.162436 -45.591758 -13.569567 -10.778386 -26.320822 -21.177530 1.641220 -18.103456 -10.192959 -17.359701 -17.701275 -48.347396 -3.818385 43.370952 -7.955345 4.097541 33.777211 -35.681884 -1.293026 17.702493 0.365584 35.322990 7.259147 -16.039523 
-33.027390 10.386962 43.146179 179.147721 -0.196014 92.339660 12.858329 38.983424 -92.573090 -9.196447 25.779716 137.233034 17.419434 -16.666588 -42.981794 nan nan nan -7.236981 -36.545704 -90.921607 -0.170830 -19.666577 140.726999 -11.506270 19.690565 -41.689357 nan nan nan 3.631644 1.087761 80.919234 -0.168093 -2.304395 -20.132547 5.009382 -0.861439 -3.348619 -9.433338 0.516928 -24.263774 12.556575 -4.893748 -18.005872 1.067039 -45.447230 -13.430742 -10.970951 -26.422643 -21.003622 1.556967 -18.171083 -10.236311 -16.933258 -17.819692 -48.945772 -3.864671 43.247321 -7.959932 4.350651 33.918733 -35.432848 -1.167734 17.737546 0.257050 35.527253 7.617446 -16.856062 
-32.992500 10.325667 43.376251 179.123525 -0.235932 92.680460 12.791903 38.872843 -92.530087 -9.152156 25.793471 136.773511 17.456006 -16.596745 -42.957616 nan nan nan -7.059384 -36.395826 -91.072985 -0.229177 -19.691786 140.303064 -11.471853 19.471520 -41.605173 nan nan nan 3.575704 1.106115 80.523789 -0.222550 -2.276851 -20.112322 4.973372 -0.880940 -3.421910 -9.446708 0.421563 -24.319712 12.576559 -4.927950 -18.124633 0.893135 -45.404257 -13.216762 -10.981668 -26.385472 -20.931665 1.362164 -18.308954 -10.239780 -16.568055 -17.805454 -49.187065 -3.755784 43.229346 -7.855526 4.421630 34.057687 -35.341942 -1.309918 17.541498 0.260564 34.991283 7.589897 -16.306657 
-32.952545 10.258822 43.649326 179.156054 -0.236435 93.082719 12.641551 38.612175 -92.569178 -9.052578 25.692846 136.239739 17.545832 -16.493594 -42.887872 nan nan nan -6.772993 -36.343098 -91.249950 -0.234230 -19.756300 139.762047 -11.354205 19.549076 -41.294871 nan nan nan 3.598930 1.077824 80.194382 -0.257593 -2.253236 -20.242203 4.952949 -0.903113 -3.458517 -9.456235 0.231323 -24.449591 12.591913 -4.923383 -18.145418 0.642725 -45.401004 -12.972206 -11.014888 -26.372241 -20.896037 1.362402 -18.389900 -10.403734 -16.563704 -17.800452 -48.983626 -3.642121 43.249011 -7.735066 4.391089 34.136534 -35.394152 -1.600968 17.264159 -0.067821 34.738011 7.636443 -15.666505 
